<?xml version="1.0" ?><svg style="enable-background:new 0 0 64 64;" version="1.1" viewBox="0 0 64 64" xml:space="preserve" xmlns="http://www.w3.org/2000/svg" xmlns:xlink="http://www.w3.org/1999/xlink"><style type="text/css">
	.st0{fill:#231F20;}
	.st1{fill:none;stroke:#000000;stroke-width:2;stroke-linecap:round;stroke-linejoin:round;stroke-miterlimit:10;}
</style><g id="FB"/><g id="ig"/><g id="yt"/><g id="twitter"/><g id="snapchat"/><g id="WA"><g><g><path d="M2,63c-0.3,0-0.5-0.1-0.7-0.3c-0.3-0.3-0.4-0.7-0.2-1l4.5-13.6C2.6,43.3,1,37.7,1,32C1,14.9,14.9,1,32,1s31,13.9,31,31     S49.1,63,32,63c-5.7,0-11.3-1.6-16.1-4.5L2.3,62.9C2.2,63,2.1,63,2,63z M16,56.4c0.2,0,0.4,0.1,0.5,0.2c4.6,2.9,10,4.5,15.5,4.5     c16,0,29-13,29-29S48,3,32,3S3,16,3,32c0,5.5,1.6,10.9,4.5,15.5c0.2,0.3,0.2,0.6,0.1,0.8c0,0.1-0.1,0.2-0.2,0.3L3.6,60.4l12.1-4     C15.8,56.4,15.9,56.4,16,56.4z"/></g><g><path d="M40,47.3c-2.7,0-6.1-0.9-10-2.7c-5.4-2.5-9.8-6.4-12.7-11.3c-1.7-2.8-2.6-5.4-2.7-7.8c0-0.1-0.5-4.7,3.9-8.2     c0.5-0.4,1.1-0.6,1.8-0.6l1.8,0c1.1,0,2.2,0.7,2.6,1.7l2.7,6.6c0.4,1,0.2,2.2-0.5,3l-1.7,1.9c-0.2,0.3-0.3,0.7-0.1,1     c0.1,0.1,0.2,0.4,0.6,0.9c2,2.6,4.7,4.7,7.7,6c0.5,0.2,0.8,0.3,1,0.4c0.3,0.1,0.7,0,0.9-0.3l1.4-2.1c0.6-0.9,1.7-1.4,2.8-1.2     l7.1,1.1c1.1,0.2,2,1,2.3,2.1l0.4,1.8c0.2,0.6,0.1,1.3-0.2,1.9c0,0,0,0,0,0c-2.4,5.2-6.9,5.8-7.1,5.8     C41.4,47.2,40.7,47.3,40,47.3z M20.3,18.7c-0.2,0-0.4,0.1-0.5,0.2c-3.6,2.9-3.2,6.5-3.2,6.5c0.1,2.1,0.9,4.4,2.4,6.9     c2.7,4.5,6.8,8.2,11.8,10.5c4.5,2.1,8.2,2.9,10.9,2.4c0.2,0,3.7-0.6,5.6-4.7c0.1-0.2,0.1-0.4,0-0.5L47,38.2     c-0.1-0.3-0.3-0.6-0.7-0.6l-7.1-1.1c-0.3,0-0.6,0.1-0.8,0.4L37,39c-0.7,1-1.9,1.5-3.1,1.2c-0.3-0.1-0.7-0.2-1.3-0.5     c-3.3-1.5-6.3-3.8-8.5-6.7c-0.4-0.5-0.6-0.8-0.8-1.1c-0.6-1.1-0.4-2.4,0.4-3.3l1.7-1.9c0.2-0.2,0.3-0.6,0.2-0.9l-2.7-6.6     c-0.1-0.3-0.4-0.5-0.8-0.5L20.3,18.7C20.3,18.7,20.3,18.7,20.3,18.7z M48.3,40.9L48.3,40.9L48.3,40.9z"/></g></g></g><g id="Pinterrest"/><g id="LinkedIn"/><g id="Messenger"/><g id="Tiktok"/><g id="VK"/><g id="Thumblr"/><g id="OK.ru"/><g id="Weibo"/></svg>